<?xml version="1.0" encoding="UTF-8"?>
<svg xmlns="http://www.w3.org/2000/svg" xmlns:xlink="http://www.w3.org/1999/xlink" width="215.4pt" height="273pt" viewBox="0 0 215.4 273" version="1.1">
<g id="surface1">
<path style=" stroke:none;fill-rule:evenodd;fill:rgb(0%,0.784302%,0%);fill-opacity:1;" d="M 53.273438 0.0742188 C 67.980469 9.074219 85.089844 14.175781 104.914063 14.847656 C 127.0625 14.484375 145.9375 9.121094 162.324219 -0.046875 C 174.378906 19.511719 193.105469 30.203125 214.445313 37.425781 C 203.101563 63.457031 202.015625 87.78125 207.964844 110.929688 C 212.742188 131.445313 215.398438 151.625 212.171875 170.859375 C 206.175781 201.554688 189.8125 223.511719 165.566406 238.835938 L 149.160156 248.503906 C 133.839844 257.535156 122.15625 259.800781 107.679688 272.945313 C 93.914063 262.402344 78.488281 254.144531 62.160156 247.125 C 42.464844 235.757813 23.734375 222.875 12.082031 198.964844 C 1.324219 180.359375 0.0859375 158.964844 2.46875 136.511719 C 13.527344 101.074219 13.511719 67.785156 1.507813 36.832031 C 22.582031 31.515625 42.128906 17.242188 53.273438 0.0742188 Z M 53.273438 0.0742188 "/>
<path style=" stroke:none;fill-rule:evenodd;fill:rgb(29.026794%,5.883789%,4.315186%);fill-opacity:1;" d="M 55.054688 4.523438 C 69.28125 13.230469 85.832031 18.164063 105.015625 18.8125 C 126.441406 18.464844 144.699219 13.277344 160.550781 4.40625 C 172.210938 23.328125 190.324219 33.667969 210.972656 40.65625 C 199.996094 65.839844 198.945313 89.367188 204.699219 111.761719 C 209.324219 131.609375 211.894531 151.128906 208.765625 169.738281 C 202.972656 199.429688 187.140625 220.671875 163.6875 235.496094 L 147.8125 244.847656 C 132.992188 253.582031 121.691406 255.777344 107.6875 268.492188 C 94.371094 258.292969 79.453125 250.304688 63.65625 243.515625 C 44.597656 232.519531 26.484375 220.054688 15.210938 196.925781 C 4.804688 178.925781 3.605469 158.230469 5.914063 136.511719 C 16.605469 102.226563 16.589844 70.027344 4.980469 40.082031 C 25.363281 34.941406 44.277344 21.128906 55.054688 4.523438 Z M 55.054688 4.523438 "/>
<path style=" stroke:none;fill-rule:evenodd;fill:rgb(0%,0.784302%,0%);fill-opacity:1;" d="M 106.410156 234.507813 L 109.171875 234.507813 L 109.171875 218.6875 L 106.410156 218.6875 Z M 106.410156 234.507813 "/>
<path style="fill-rule:evenodd;fill:rgb(100%,100%,100%);fill-opacity:1;stroke-width:5;stroke-linecap:butt;stroke-linejoin:miter;stroke:rgb(0%,0.784302%,0%);stroke-opacity:1;stroke-miterlimit:4;" d="M 1074.023438 1531.210938 C 1334.960938 1531.210938 1546.484375 1308.085938 1546.484375 1032.851563 C 1546.484375 757.578125 1334.960938 534.453125 1074.023438 534.453125 C 813.085938 534.453125 601.523438 757.578125 601.523438 1032.851563 C 601.523438 1308.085938 813.085938 1531.210938 1074.023438 1531.210938 Z M 1074.023438 1531.210938 " transform="matrix(0.1,0,0,-0.1,0,273)"/>
<path style="fill-rule:evenodd;fill:rgb(100%,100%,100%);fill-opacity:1;stroke-width:2;stroke-linecap:butt;stroke-linejoin:miter;stroke:rgb(0%,0%,0%);stroke-opacity:1;stroke-miterlimit:4;" d="M 568.007813 1881.132813 L 1591.875 1881.132813 L 1591.875 2140.3125 L 568.007813 2140.3125 Z M 568.007813 1881.132813 " transform="matrix(0.1,0,0,-0.1,0,273)"/>
<path style="fill-rule:evenodd;fill:rgb(100%,100%,100%);fill-opacity:1;stroke-width:22.696;stroke-linecap:butt;stroke-linejoin:miter;stroke:rgb(0%,0.784302%,0%);stroke-opacity:1;stroke-miterlimit:4;" d="M 431.328125 2132.851563 L 1719.921875 2137.34375 L 1595.351563 2368.515625 L 567.539063 2365.507813 Z M 431.328125 2132.851563 " transform="matrix(0.1,0,0,-0.1,0,273)"/>
<path style="fill-rule:evenodd;fill:rgb(100%,100%,100%);fill-opacity:1;stroke-width:9.359;stroke-linecap:butt;stroke-linejoin:round;stroke:rgb(0%,0.784302%,0%);stroke-opacity:1;stroke-miterlimit:4;" d="M 400.195313 921.171875 C 317.578125 923.75 259.648438 967.929688 218.359375 1068.59375 C 334.960938 1090.976563 370.546875 1011.601563 410.429688 926.796875 C 364.140625 987.8125 324.882813 1016.054688 266.132813 1054.179688 C 326.835938 1011.796875 362.148438 983.125 400.195313 921.171875 Z M 400.195313 921.171875 " transform="matrix(0.1,0,0,-0.1,0,273)"/>
<path style="fill-rule:evenodd;fill:rgb(100%,100%,100%);fill-opacity:1;stroke-width:9.259;stroke-linecap:butt;stroke-linejoin:round;stroke:rgb(0%,0.784302%,0%);stroke-opacity:1;stroke-miterlimit:4;" d="M 415.429688 921.71875 C 496.367188 945.234375 542.304688 1003.59375 557.539063 1113.476563 C 436.679688 1105.9375 421.757813 1018.515625 403.945313 924.6875 C 434.140625 996.640625 465.664063 1034.53125 513.984375 1087.070313 C 464.84375 1029.84375 437.304688 992.539063 415.429688 921.71875 Z M 415.429688 921.71875 " transform="matrix(0.1,0,0,-0.1,0,273)"/>
<path style="fill-rule:evenodd;fill:rgb(100%,100%,100%);fill-opacity:1;stroke-width:9.359;stroke-linecap:butt;stroke-linejoin:round;stroke:rgb(0%,0.784302%,0%);stroke-opacity:1;stroke-miterlimit:4;" d="M 383.398438 1062.890625 C 300.820313 1065.46875 242.8125 1109.648438 201.484375 1210.3125 C 318.164063 1232.695313 353.710938 1153.320313 393.59375 1068.515625 C 347.304688 1129.53125 308.085938 1157.773438 249.335938 1195.898438 C 310.039063 1153.515625 345.3125 1124.84375 383.398438 1062.890625 Z M 383.398438 1062.890625 " transform="matrix(0.1,0,0,-0.1,0,273)"/>
<path style="fill-rule:evenodd;fill:rgb(100%,100%,100%);fill-opacity:1;stroke-width:9.066;stroke-linecap:butt;stroke-linejoin:round;stroke:rgb(0%,0.784302%,0%);stroke-opacity:1;stroke-miterlimit:4;" d="M 404.414063 1063.4375 C 483.632813 1086.484375 528.632813 1143.59375 543.515625 1251.210938 C 425.195313 1243.789063 410.585938 1158.203125 393.125 1066.328125 C 422.695313 1136.796875 453.59375 1173.867188 500.898438 1225.351563 C 452.773438 1169.296875 425.859375 1132.773438 404.414063 1063.4375 Z M 404.414063 1063.4375 " transform="matrix(0.1,0,0,-0.1,0,273)"/>
<path style="fill-rule:evenodd;fill:rgb(89.0625%,0%,8.616638%);fill-opacity:1;stroke-width:5;stroke-linecap:butt;stroke-linejoin:miter;stroke:rgb(0%,0.784302%,0%);stroke-opacity:1;stroke-miterlimit:4;" d="M 1074.023438 1499.0625 C 1318.085938 1499.0625 1515.976563 1290.3125 1515.976563 1032.851563 C 1515.976563 775.351563 1318.085938 566.601563 1074.023438 566.601563 C 829.921875 566.601563 632.070313 775.351563 632.070313 1032.851563 C 632.070313 1290.3125 829.921875 1499.0625 1074.023438 1499.0625 Z M 1074.023438 1499.0625 " transform="matrix(0.1,0,0,-0.1,0,273)"/>
<path style="fill-rule:evenodd;fill:rgb(100%,100%,100%);fill-opacity:1;stroke-width:9.066;stroke-linecap:butt;stroke-linejoin:round;stroke:rgb(0%,0.784302%,0%);stroke-opacity:1;stroke-miterlimit:4;" d="M 391.171875 1194.335938 C 470.390625 1217.382813 515.429688 1274.492188 530.3125 1382.109375 C 412.03125 1374.6875 397.382813 1289.101563 379.921875 1197.226563 C 409.53125 1267.734375 440.351563 1304.804688 487.65625 1356.25 C 439.570313 1300.195313 412.578125 1263.710938 391.171875 1194.335938 Z M 391.171875 1194.335938 " transform="matrix(0.1,0,0,-0.1,0,273)"/>
<path style="fill-rule:evenodd;fill:rgb(100%,100%,100%);fill-opacity:1;stroke-width:9.359;stroke-linecap:butt;stroke-linejoin:round;stroke:rgb(0%,0.784302%,0%);stroke-opacity:1;stroke-miterlimit:4;" d="M 378.59375 1199.804688 C 295.976563 1202.382813 238.007813 1246.5625 196.679688 1347.226563 C 313.398438 1369.609375 348.90625 1290.234375 388.789063 1205.429688 C 342.539063 1266.445313 303.320313 1294.6875 244.570313 1332.8125 C 305.234375 1290.429688 340.507813 1261.757813 378.59375 1199.804688 Z M 378.59375 1199.804688 " transform="matrix(0.1,0,0,-0.1,0,273)"/>
<path style="fill-rule:evenodd;fill:rgb(89.0625%,0%,8.616638%);fill-opacity:1;stroke-width:22.696;stroke-linecap:butt;stroke-linejoin:miter;stroke:rgb(0%,0.784302%,0%);stroke-opacity:1;stroke-miterlimit:4;" d="M 828.710938 1969.6875 L 877.773438 1839.335938 C 938.945313 1858.671875 1009.648438 1915.742188 1021.992188 1982.03125 C 1029.023438 2019.765625 1019.921875 2057.5 995.078125 2089.335938 L 863.320313 2258.398438 C 851.757813 2275.039063 845.898438 2288.125 857.421875 2302.851563 C 867.773438 2316.09375 872.148438 2312.96875 887.8125 2312.96875 L 1001.914063 2312.96875 L 1001.914063 2432.578125 L 829.257813 2432.578125 C 813.59375 2432.578125 804.765625 2433.242188 789.414063 2428.671875 C 719.882813 2407.8125 701.328125 2337.96875 714.179688 2268.984375 C 718.515625 2245.78125 728.632813 2223.867188 747.1875 2203.867188 L 871.796875 2037.226563 Z M 828.710938 1969.6875 " transform="matrix(0.1,0,0,-0.1,0,273)"/>
<path style="fill-rule:evenodd;fill:rgb(100%,100%,100%);fill-opacity:1;stroke-width:9.066;stroke-linecap:butt;stroke-linejoin:round;stroke:rgb(0%,0.784302%,0%);stroke-opacity:1;stroke-miterlimit:4;" d="M 387.851563 1338.867188 C 467.109375 1361.875 512.109375 1419.023438 527.03125 1526.601563 C 408.632813 1519.21875 394.023438 1433.632813 376.601563 1341.757813 C 406.171875 1412.226563 437.070313 1449.296875 484.335938 1500.742188 C 436.210938 1444.726563 409.257813 1408.203125 387.851563 1338.867188 Z M 387.851563 1338.867188 " transform="matrix(0.1,0,0,-0.1,0,273)"/>
<path style="fill-rule:evenodd;fill:rgb(100%,100%,100%);fill-opacity:1;stroke-width:9.359;stroke-linecap:butt;stroke-linejoin:round;stroke:rgb(0%,0.784302%,0%);stroke-opacity:1;stroke-miterlimit:4;" d="M 366.5625 1346.328125 C 283.945313 1348.90625 226.015625 1393.085938 184.6875 1493.75 C 301.367188 1516.132813 336.914063 1436.757813 376.796875 1351.953125 C 330.507813 1412.96875 291.289063 1441.210938 232.539063 1479.335938 C 293.203125 1436.953125 328.476563 1408.28125 366.5625 1346.328125 Z M 366.5625 1346.328125 " transform="matrix(0.1,0,0,-0.1,0,273)"/>
<path style="fill-rule:evenodd;fill:rgb(100%,100%,100%);fill-opacity:1;stroke-width:9.066;stroke-linecap:butt;stroke-linejoin:round;stroke:rgb(0%,0.784302%,0%);stroke-opacity:1;stroke-miterlimit:4;" d="M 379.453125 1469.765625 C 458.671875 1492.8125 503.671875 1549.921875 518.59375 1657.539063 C 400.234375 1650.117188 385.625 1564.53125 368.164063 1472.65625 C 397.734375 1543.125 428.632813 1580.195313 475.9375 1631.679688 C 427.8125 1575.625 400.898438 1539.101563 379.453125 1469.765625 Z M 379.453125 1469.765625 " transform="matrix(0.1,0,0,-0.1,0,273)"/>
<path style="fill-rule:evenodd;fill:rgb(100%,100%,100%);fill-opacity:1;stroke-width:9.359;stroke-linecap:butt;stroke-linejoin:round;stroke:rgb(0%,0.784302%,0%);stroke-opacity:1;stroke-miterlimit:4;" d="M 369.609375 1480.234375 C 286.953125 1482.8125 229.023438 1526.992188 187.695313 1627.695313 C 304.375 1650.078125 339.921875 1570.664063 379.804688 1485.859375 C 333.515625 1546.875 294.257813 1575.117188 235.507813 1613.242188 C 296.210938 1570.898438 331.484375 1542.1875 369.609375 1480.234375 Z M 369.609375 1480.234375 " transform="matrix(0.1,0,0,-0.1,0,273)"/>
<path style="fill-rule:evenodd;fill:rgb(100%,100%,100%);fill-opacity:1;stroke-width:9.066;stroke-linecap:butt;stroke-linejoin:round;stroke:rgb(0%,0.784302%,0%);stroke-opacity:1;stroke-miterlimit:4;" d="M 379.453125 1614.492188 C 458.671875 1637.5 503.710938 1694.609375 518.59375 1802.226563 C 400.273438 1794.84375 385.664063 1709.257813 368.203125 1617.382813 C 397.773438 1687.851563 428.632813 1724.921875 475.9375 1776.367188 C 427.8125 1720.351563 400.898438 1683.828125 379.453125 1614.492188 Z M 379.453125 1614.492188 " transform="matrix(0.1,0,0,-0.1,0,273)"/>
<path style="fill-rule:evenodd;fill:rgb(100%,100%,100%);fill-opacity:1;stroke-width:9.359;stroke-linecap:butt;stroke-linejoin:round;stroke:rgb(0%,0.784302%,0%);stroke-opacity:1;stroke-miterlimit:4;" d="M 361.171875 1624.375 C 278.554688 1626.914063 220.625 1671.09375 179.257813 1771.796875 C 295.9375 1794.179688 331.523438 1714.765625 371.40625 1630 C 325.078125 1690.976563 285.898438 1719.257813 227.148438 1757.34375 C 287.8125 1715 323.085938 1686.328125 361.171875 1624.375 Z M 361.171875 1624.375 " transform="matrix(0.1,0,0,-0.1,0,273)"/>
<path style="fill-rule:evenodd;fill:rgb(100%,100%,100%);fill-opacity:1;stroke-width:8.654;stroke-linecap:butt;stroke-linejoin:round;stroke:rgb(0%,0.784302%,0%);stroke-opacity:1;stroke-miterlimit:4;" d="M 378.945313 1753.789063 C 454.609375 1775.78125 497.539063 1830.3125 511.757813 1933.007813 C 398.789063 1925.9375 384.84375 1844.257813 368.203125 1756.5625 C 396.40625 1823.828125 425.898438 1859.21875 471.054688 1908.320313 C 425.117188 1854.84375 399.375 1820 378.945313 1753.789063 Z M 378.945313 1753.789063 " transform="matrix(0.1,0,0,-0.1,0,273)"/>
<path style="fill-rule:evenodd;fill:rgb(100%,100%,100%);fill-opacity:1;stroke-width:9.078;stroke-linecap:butt;stroke-linejoin:miter;stroke:rgb(0%,0.784302%,0%);stroke-opacity:1;stroke-miterlimit:4;" d="M 655.429688 1512.265625 L 792.382813 1468.945313 L 791.210938 1270.507813 L 666.796875 1304.960938 C 642.929688 1370.507813 629.609375 1439.921875 635.664063 1517.890625 Z M 655.429688 1512.265625 " transform="matrix(0.1,0,0,-0.1,0,273)"/>
<path style="fill-rule:evenodd;fill:rgb(100%,100%,100%);fill-opacity:1;stroke-width:8.867;stroke-linecap:butt;stroke-linejoin:round;stroke:rgb(0%,0.784302%,0%);stroke-opacity:1;stroke-miterlimit:4;" d="M 348.007813 1763.046875 C 270.078125 1774.414063 220.039063 1822.5 191.835938 1922.304688 C 304.6875 1930.820313 329.726563 1851.835938 358.320313 1767.226563 C 321.054688 1830 287.03125 1861.015625 235.546875 1903.4375 C 288.398438 1856.757813 318.671875 1825.78125 348.007813 1763.046875 Z M 348.007813 1763.046875 " transform="matrix(0.1,0,0,-0.1,0,273)"/>
<path style="fill-rule:evenodd;fill:rgb(100%,100%,100%);fill-opacity:1;stroke-width:8.763;stroke-linecap:butt;stroke-linejoin:round;stroke:rgb(0%,0.784302%,0%);stroke-opacity:1;stroke-miterlimit:4;" d="M 380.507813 1896.796875 C 457.265625 1914.375 503.320313 1966.328125 523.398438 2068.046875 C 410.234375 2067.5 391.601563 1986.757813 369.921875 1900.15625 C 401.953125 1965.703125 433.4375 1999.335938 481.367188 2045.742188 C 432.421875 1995 404.726563 1961.679688 380.507813 1896.796875 Z M 380.507813 1896.796875 " transform="matrix(0.1,0,0,-0.1,0,273)"/>
<path style="fill-rule:evenodd;fill:rgb(100%,100%,100%);fill-opacity:1;stroke-width:8.763;stroke-linecap:butt;stroke-linejoin:round;stroke:rgb(0%,0.784302%,0%);stroke-opacity:1;stroke-miterlimit:4;" d="M 340.429688 1895.15625 C 263.671875 1912.734375 217.617188 1964.6875 197.539063 2066.40625 C 310.664063 2065.898438 329.296875 1985.117188 351.015625 1898.515625 C 318.945313 1964.0625 287.460938 1997.695313 239.609375 2044.101563 C 288.515625 1993.359375 316.210938 1960.078125 340.429688 1895.15625 Z M 340.429688 1895.15625 " transform="matrix(0.1,0,0,-0.1,0,273)"/>
<path style="fill-rule:evenodd;fill:rgb(100%,100%,100%);fill-opacity:1;stroke-width:8.998;stroke-linecap:butt;stroke-linejoin:miter;stroke:rgb(0%,0.784302%,0%);stroke-opacity:1;stroke-miterlimit:4;" d="M 1705.898438 1979.492188 C 1676.71875 1998.828125 1660.351563 2024.414063 1653.945313 2054.921875 L 1693.789063 2042.695313 L 1675.117188 2109.257813 L 1732.851563 2096.71875 C 1730.625 2107.96875 1732.851563 2120.78125 1738.398438 2134.726563 L 1756.71875 2102.03125 C 1754.492188 2127.8125 1759.140625 2153.828125 1779.492188 2180.234375 C 1804.453125 2162.34375 1824.21875 2140.039063 1822.96875 2100.039063 L 1847.539063 2109.0625 L 1842.890625 2089.375 L 1889.21875 2098.632813 L 1879.257813 2053.046875 L 1921.992188 2057.578125 L 1885.234375 1997.5 Z M 1705.898438 1979.492188 " transform="matrix(0.1,0,0,-0.1,0,273)"/>
<path style="fill-rule:evenodd;fill:rgb(100%,100%,100%);fill-opacity:1;stroke-width:22.494;stroke-linecap:butt;stroke-linejoin:miter;stroke:rgb(0%,0.784302%,0%);stroke-opacity:1;stroke-miterlimit:4;" d="M 1687.773438 1901.523438 C 1676.09375 1922.96875 1659.296875 1959.921875 1679.765625 1979.648438 C 1693.632813 1993.007813 1710.039063 1995.742188 1726.953125 1995.976563 C 1719.21875 2044.570313 1762.578125 2079.882813 1809.84375 2062.578125 C 1828.90625 2055.585938 1844.335938 2039.960938 1853.007813 2011.40625 C 1918.515625 2027.5 1925.585938 1982.65625 1914.609375 1934.140625 Z M 1687.773438 1901.523438 " transform="matrix(0.1,0,0,-0.1,0,273)"/>
<path style="fill-rule:evenodd;fill:rgb(100%,100%,100%);fill-opacity:1;stroke-width:22.494;stroke-linecap:butt;stroke-linejoin:miter;stroke:rgb(0%,0.784302%,0%);stroke-opacity:1;stroke-miterlimit:4;" d="M 1682.695313 1910.273438 C 1737.8125 1806.40625 1880.351563 1851.25 1914.609375 1934.140625 L 1874.335938 1935.976563 L 1870.898438 1957.34375 L 1842.03125 1943.242188 C 1837.148438 1942.226563 1835.898438 1944.84375 1836.328125 1949.023438 L 1835.390625 1968.945313 L 1820.46875 1956.367188 C 1809.21875 1946.875 1803.867188 1932.539063 1793.789063 1949.179688 L 1776.367188 1970.703125 C 1769.0625 1958.007813 1761.367188 1929.375 1749.101563 1941.40625 L 1718.945313 1960.585938 L 1723.203125 1919.921875 Z M 1682.695313 1910.273438 " transform="matrix(0.1,0,0,-0.1,0,273)"/>
<path style="fill-rule:evenodd;fill:rgb(100%,100%,100%);fill-opacity:1;stroke-width:5;stroke-linecap:butt;stroke-linejoin:miter;stroke:rgb(0%,0.784302%,0%);stroke-opacity:1;stroke-miterlimit:4;" d="M 366.5625 1997.1875 L 368.359375 2210.351563 C 333.398438 2191.796875 321.210938 2140.234375 321.484375 2070.429688 C 325.625 2034.023438 339.21875 2007.96875 366.5625 1997.1875 Z M 366.5625 1997.1875 " transform="matrix(0.1,0,0,-0.1,0,273)"/>
<path style="fill-rule:evenodd;fill:rgb(100%,100%,100%);fill-opacity:1;stroke-width:5;stroke-linecap:butt;stroke-linejoin:miter;stroke:rgb(0%,0.784302%,0%);stroke-opacity:1;stroke-miterlimit:4;" d="M 370.117188 1997.1875 L 368.359375 2210.351563 C 403.28125 2191.796875 415.46875 2140.234375 415.195313 2070.429688 C 411.054688 2034.023438 397.460938 2007.96875 370.117188 1997.1875 Z M 370.117188 1997.1875 " transform="matrix(0.1,0,0,-0.1,0,273)"/>
<path style="fill-rule:evenodd;fill:rgb(100%,100%,100%);fill-opacity:1;stroke-width:10.894;stroke-linecap:round;stroke-linejoin:round;stroke:rgb(0%,0.784302%,0%);stroke-opacity:1;stroke-miterlimit:4;" d="M 267.695313 909.335938 C 338.710938 931.640625 393.828125 897.929688 444.84375 850.46875 C 446.523438 905.585938 470.820313 941.054688 515.703125 958.554688 C 541.757813 816.757813 599.140625 690.625 708.476563 590.46875 L 793.789063 529.804688 C 732.96875 513.007813 649.921875 524.414063 577.539063 502.773438 C 463.90625 630 365.195313 769.21875 267.695313 909.335938 Z M 267.695313 909.335938 " transform="matrix(0.1,0,0,-0.1,0,273)"/>
<path style="fill-rule:evenodd;fill:rgb(100%,100%,100%);fill-opacity:1;stroke-width:18.157;stroke-linecap:round;stroke-linejoin:round;stroke:rgb(0%,0.784302%,0%);stroke-opacity:1;stroke-miterlimit:4;" d="M 957.382813 351.992188 L 1066.71875 386.210938 C 977.109375 449.609375 766.71875 452.109375 653.515625 463.398438 C 801.953125 467.109375 941.875 449.6875 1067.890625 397.34375 C 1016.914063 508.085938 894.0625 542.695313 780.859375 531.835938 L 569.726563 511.5625 C 637.734375 357.851563 806.757813 323.632813 957.382813 351.992188 Z M 957.382813 351.992188 " transform="matrix(0.1,0,0,-0.1,0,273)"/>
<path style="fill-rule:evenodd;fill:rgb(100%,100%,100%);fill-opacity:1;stroke-width:9.078;stroke-linecap:butt;stroke-linejoin:miter;stroke:rgb(0%,0.784302%,0%);stroke-opacity:1;stroke-miterlimit:4;" d="M 530.273438 1486.445313 C 530.664063 1434.921875 589.296875 1271.953125 649.21875 1272.8125 L 655.46875 1272.890625 L 714.960938 1273.632813 C 727.8125 1277.578125 723.710938 1293.554688 710.78125 1294.0625 L 664.375 1295.78125 C 651.40625 1294.453125 643.710938 1308.203125 659.882813 1311.40625 L 723.945313 1310.859375 C 735.976563 1313.085938 736.5625 1330.742188 725.78125 1333.671875 L 663.90625 1333.671875 C 655.117188 1336.601563 657.148438 1345.78125 664.570313 1345.078125 L 726.367188 1345.078125 C 737.578125 1347.890625 733.476563 1364.492188 725.78125 1366.09375 L 663.007813 1366.640625 C 658.59375 1369.648438 656.601563 1374.179688 661.523438 1377.539063 L 718.320313 1377.539063 C 727.539063 1377.539063 728.007813 1375.234375 729.726563 1383.984375 C 731.210938 1391.71875 731.289063 1400.429688 723.398438 1402.148438 L 652.773438 1401.835938 C 628.398438 1411.953125 615.546875 1429.023438 602.34375 1453.515625 L 622.265625 1447.773438 C 627.34375 1448.007813 628.164063 1450.742188 626.40625 1455 L 610.898438 1486.796875 Z M 530.273438 1486.445313 " transform="matrix(0.1,0,0,-0.1,0,273)"/>
<path style="fill-rule:evenodd;fill:rgb(100%,100%,100%);fill-opacity:1;stroke-width:18.157;stroke-linecap:round;stroke-linejoin:round;stroke:rgb(0%,0.784302%,0%);stroke-opacity:1;stroke-miterlimit:4;" d="M 945.9375 277.8125 L 1004.21875 240.273438 L 1076.875 321.953125 L 1149.804688 242.070313 L 1215.898438 281.09375 L 1076.5625 397.617188 Z M 945.9375 277.8125 " transform="matrix(0.1,0,0,-0.1,0,273)"/>
<path style="fill-rule:evenodd;fill:rgb(100%,100%,100%);fill-opacity:1;stroke-width:18.157;stroke-linecap:round;stroke-linejoin:round;stroke:rgb(0%,0.784302%,0%);stroke-opacity:1;stroke-miterlimit:4;" d="M 1894.21875 909.335938 C 1823.125 931.640625 1768.007813 897.929688 1717.03125 850.46875 C 1715.351563 905.585938 1691.09375 941.054688 1646.171875 958.554688 C 1620.117188 816.757813 1562.734375 690.625 1453.398438 590.46875 L 1368.125 529.804688 C 1428.867188 513.007813 1511.953125 524.414063 1584.296875 502.773438 C 1697.96875 630 1796.640625 769.21875 1894.21875 909.335938 Z M 1894.21875 909.335938 " transform="matrix(0.1,0,0,-0.1,0,273)"/>
<path style="fill-rule:evenodd;fill:rgb(100%,100%,100%);fill-opacity:1;stroke-width:18.157;stroke-linecap:round;stroke-linejoin:round;stroke:rgb(0%,0.784302%,0%);stroke-opacity:1;stroke-miterlimit:4;" d="M 1204.492188 351.992188 L 1095.195313 386.210938 C 1184.765625 449.609375 1395.117188 452.109375 1508.359375 463.398438 C 1359.921875 467.109375 1219.960938 449.6875 1093.984375 397.34375 C 1144.960938 508.085938 1267.773438 542.695313 1381.015625 531.835938 L 1592.148438 511.5625 C 1524.101563 357.851563 1355.117188 323.632813 1204.492188 351.992188 Z M 1204.492188 351.992188 " transform="matrix(0.1,0,0,-0.1,0,273)"/>
<path style="fill-rule:evenodd;fill:rgb(100%,100%,100%);fill-opacity:1;stroke-width:8.998;stroke-linecap:butt;stroke-linejoin:miter;stroke:rgb(0%,0.784302%,0%);stroke-opacity:1;stroke-miterlimit:4;" d="M 1698.671875 1741.679688 C 1669.53125 1761.015625 1653.125 1786.640625 1646.71875 1817.109375 L 1686.5625 1804.882813 L 1667.890625 1871.445313 L 1725.625 1858.90625 C 1723.4375 1870.195313 1725.664063 1882.96875 1731.132813 1896.914063 L 1749.453125 1864.21875 C 1747.265625 1890.039063 1751.914063 1916.015625 1772.304688 1942.421875 C 1797.226563 1924.53125 1816.992188 1902.265625 1815.78125 1862.226563 L 1840.3125 1871.289063 L 1835.703125 1851.5625 L 1881.992188 1860.820313 L 1872.109375 1815.234375 L 1914.765625 1819.765625 L 1878.046875 1759.6875 Z M 1698.671875 1741.679688 " transform="matrix(0.1,0,0,-0.1,0,273)"/>
<path style="fill-rule:evenodd;fill:rgb(100%,100%,100%);fill-opacity:1;stroke-width:22.494;stroke-linecap:butt;stroke-linejoin:miter;stroke:rgb(0%,0.784302%,0%);stroke-opacity:1;stroke-miterlimit:4;" d="M 1680.546875 1663.710938 C 1668.867188 1685.15625 1652.148438 1722.109375 1672.578125 1741.835938 C 1686.445313 1755.195313 1702.8125 1757.929688 1719.726563 1758.164063 C 1711.992188 1806.757813 1755.390625 1842.070313 1802.617188 1824.804688 C 1821.71875 1817.8125 1837.148438 1802.148438 1845.859375 1773.59375 C 1911.328125 1789.6875 1918.398438 1744.882813 1907.382813 1696.328125 Z M 1680.546875 1663.710938 " transform="matrix(0.1,0,0,-0.1,0,273)"/>
<path style="fill-rule:evenodd;fill:rgb(100%,100%,100%);fill-opacity:1;stroke-width:22.494;stroke-linecap:butt;stroke-linejoin:miter;stroke:rgb(0%,0.784302%,0%);stroke-opacity:1;stroke-miterlimit:4;" d="M 1675.507813 1672.460938 C 1730.585938 1568.59375 1873.164063 1613.4375 1907.382813 1696.328125 L 1867.148438 1698.203125 L 1863.671875 1719.53125 L 1834.84375 1705.429688 C 1829.960938 1704.453125 1828.632813 1707.070313 1829.140625 1711.25 L 1828.164063 1731.132813 L 1813.242188 1718.554688 C 1801.953125 1709.101563 1796.71875 1694.726563 1786.523438 1711.367188 L 1769.21875 1732.890625 C 1761.875 1720.234375 1754.140625 1691.5625 1741.875 1703.59375 L 1711.757813 1722.773438 L 1716.015625 1682.148438 Z M 1675.507813 1672.460938 " transform="matrix(0.1,0,0,-0.1,0,273)"/>
<path style="fill-rule:evenodd;fill:rgb(100%,100%,100%);fill-opacity:1;stroke-width:9.078;stroke-linecap:butt;stroke-linejoin:miter;stroke:rgb(0%,0.784302%,0%);stroke-opacity:1;stroke-miterlimit:4;" d="M 1721.054688 1509.296875 C 1694.453125 1531.992188 1681.289063 1559.375 1678.554688 1590.429688 L 1716.640625 1573.476563 L 1706.132813 1641.835938 L 1761.953125 1622.421875 C 1761.09375 1633.867188 1764.84375 1646.328125 1771.953125 1659.492188 L 1786.210938 1624.84375 C 1787.148438 1650.703125 1794.882813 1675.976563 1818.28125 1699.726563 C 1840.898438 1678.984375 1857.8125 1654.492188 1851.796875 1614.882813 L 1877.265625 1620.9375 L 1870.3125 1601.914063 L 1917.382813 1605.507813 L 1902.109375 1561.484375 L 1945.039063 1560.859375 L 1901.289063 1505.625 Z M 1721.054688 1509.296875 " transform="matrix(0.1,0,0,-0.1,0,273)"/>
<path style="fill-rule:evenodd;fill:rgb(100%,100%,100%);fill-opacity:1;stroke-width:22.694;stroke-linecap:butt;stroke-linejoin:miter;stroke:rgb(0%,0.784302%,0%);stroke-opacity:1;stroke-miterlimit:4;" d="M 1693.710938 1434.0625 C 1684.6875 1456.757813 1672.460938 1495.46875 1695.195313 1512.578125 C 1710.546875 1524.179688 1727.148438 1524.921875 1743.984375 1523.125 C 1742.148438 1572.304688 1789.453125 1602.109375 1834.257813 1579.296875 C 1852.34375 1570.078125 1865.78125 1552.65625 1870.976563 1523.28125 C 1937.96875 1531.40625 1939.648438 1486.054688 1922.8125 1439.179688 Z M 1693.710938 1434.0625 " transform="matrix(0.1,0,0,-0.1,0,273)"/>
<path style="fill-rule:evenodd;fill:rgb(100%,100%,100%);fill-opacity:1;stroke-width:22.694;stroke-linecap:butt;stroke-linejoin:miter;stroke:rgb(0%,0.784302%,0%);stroke-opacity:1;stroke-miterlimit:4;" d="M 1689.726563 1443.359375 C 1731.953125 1333.59375 1878.867188 1360.976563 1922.8125 1439.179688 L 1883.085938 1445.859375 L 1882.226563 1467.460938 L 1851.914063 1456.914063 C 1846.914063 1456.523438 1845.9375 1459.296875 1846.953125 1463.398438 L 1848.398438 1483.242188 L 1832.03125 1472.578125 C 1819.6875 1464.53125 1812.695313 1450.898438 1804.648438 1468.632813 L 1790.039063 1492.109375 C 1781.210938 1480.390625 1770.117188 1452.851563 1759.375 1466.289063 L 1731.796875 1488.945313 L 1731.132813 1448.085938 Z M 1689.726563 1443.359375 " transform="matrix(0.1,0,0,-0.1,0,273)"/>
<path style="fill-rule:evenodd;fill:rgb(100%,100%,100%);fill-opacity:1;stroke-width:8.871;stroke-linecap:butt;stroke-linejoin:miter;stroke:rgb(0%,0.784302%,0%);stroke-opacity:1;stroke-miterlimit:4;" d="M 1720.195313 1275.039063 C 1689.648438 1291.953125 1671.210938 1316.171875 1662.382813 1346.054688 L 1703.046875 1337.070313 L 1679.140625 1401.914063 L 1737.65625 1394.0625 C 1734.609375 1405.117188 1735.742188 1418.046875 1740.117188 1432.382813 L 1760.976563 1401.25 C 1756.757813 1426.796875 1759.296875 1453.085938 1777.460938 1481.054688 C 1803.789063 1465.195313 1825.234375 1444.609375 1827.265625 1404.609375 L 1850.976563 1415.585938 L 1847.96875 1395.585938 L 1893.398438 1408.515625 L 1887.148438 1362.304688 L 1929.335938 1370.234375 L 1897.539063 1307.421875 Z M 1720.195313 1275.039063 " transform="matrix(0.1,0,0,-0.1,0,273)"/>
<path style="fill-rule:evenodd;fill:rgb(100%,100%,100%);fill-opacity:1;stroke-width:22.179;stroke-linecap:butt;stroke-linejoin:miter;stroke:rgb(0%,0.784302%,0%);stroke-opacity:1;stroke-miterlimit:4;" d="M 1708.4375 1195.859375 C 1695.078125 1216.289063 1675.351563 1251.796875 1694.21875 1273.085938 C 1706.953125 1287.5 1723.046875 1291.5625 1739.882813 1293.164063 C 1728.28125 1340.976563 1768.671875 1379.648438 1817.148438 1366.210938 C 1836.71875 1360.78125 1853.398438 1346.445313 1864.335938 1318.671875 C 1928.359375 1340 1938.984375 1295.859375 1931.914063 1246.601563 Z M 1708.4375 1195.859375 " transform="matrix(0.1,0,0,-0.1,0,273)"/>
<path style="fill-rule:evenodd;fill:rgb(100%,100%,100%);fill-opacity:1;stroke-width:22.179;stroke-linecap:butt;stroke-linejoin:miter;stroke:rgb(0%,0.784302%,0%);stroke-opacity:1;stroke-miterlimit:4;" d="M 1702.695313 1204.179688 C 1765.976563 1105.078125 1904.453125 1161.210938 1931.914063 1246.601563 L 1891.640625 1245.234375 L 1886.445313 1266.210938 L 1858.867188 1249.84375 C 1854.0625 1248.476563 1852.539063 1250.976563 1852.734375 1255.15625 L 1850.15625 1274.921875 L 1836.289063 1261.210938 C 1825.78125 1250.859375 1821.71875 1236.09375 1810.234375 1251.875 L 1791.210938 1271.953125 C 1784.921875 1258.710938 1779.53125 1229.53125 1766.367188 1240.546875 L 1734.765625 1257.226563 L 1742.265625 1217.070313 Z M 1702.695313 1204.179688 " transform="matrix(0.1,0,0,-0.1,0,273)"/>
<path style="fill-rule:evenodd;fill:rgb(100%,100%,100%);fill-opacity:1;stroke-width:9.078;stroke-linecap:butt;stroke-linejoin:miter;stroke:rgb(0%,0.784302%,0%);stroke-opacity:1;stroke-miterlimit:4;" d="M 932.617188 1512.265625 L 795.703125 1468.945313 L 796.835938 1270.507813 L 921.289063 1304.960938 C 945.117188 1370.507813 958.476563 1439.921875 952.421875 1517.890625 Z M 932.617188 1512.265625 " transform="matrix(0.1,0,0,-0.1,0,273)"/>
<path style="fill-rule:evenodd;fill:rgb(100%,100%,100%);fill-opacity:1;stroke-width:9.078;stroke-linecap:butt;stroke-linejoin:miter;stroke:rgb(0%,0.784302%,0%);stroke-opacity:1;stroke-miterlimit:4;" d="M 1054.804688 1502.03125 C 1054.414063 1450.507813 998.789063 1271.953125 938.867188 1272.8125 L 932.578125 1272.890625 L 873.125 1273.632813 C 860.273438 1277.578125 864.375 1293.554688 877.34375 1294.0625 L 923.710938 1295.78125 C 936.679688 1294.453125 944.335938 1308.203125 928.203125 1311.40625 L 864.140625 1310.859375 C 852.148438 1313.085938 851.523438 1330.742188 862.304688 1333.671875 L 924.140625 1333.671875 C 932.96875 1336.601563 930.976563 1345.78125 923.554688 1345.078125 L 861.71875 1345.078125 C 850.507813 1347.890625 854.648438 1364.492188 862.304688 1366.09375 L 925.078125 1366.640625 C 929.453125 1369.648438 931.484375 1374.179688 926.5625 1377.539063 L 869.804688 1377.539063 C 860.546875 1377.539063 860.078125 1375.234375 858.398438 1383.984375 C 856.875 1391.71875 856.796875 1400.429688 864.726563 1402.148438 L 935.273438 1401.835938 C 959.726563 1411.953125 972.539063 1429.023438 985.78125 1453.515625 L 965.820313 1447.773438 C 960.703125 1448.007813 959.921875 1450.742188 961.679688 1455 L 977.226563 1486.796875 Z M 1054.804688 1502.03125 " transform="matrix(0.1,0,0,-0.1,0,273)"/>
<path style="fill-rule:evenodd;fill:rgb(100%,100%,100%);fill-opacity:1;stroke-width:9.078;stroke-linecap:butt;stroke-linejoin:miter;stroke:rgb(0%,0.784302%,0%);stroke-opacity:1;stroke-miterlimit:4;" d="M 1712.890625 1042.890625 C 1686.5625 1065.9375 1673.789063 1093.515625 1671.445313 1124.570313 L 1709.257813 1107.148438 L 1699.648438 1175.625 L 1755.195313 1155.507813 C 1754.53125 1166.953125 1758.4375 1179.335938 1765.703125 1192.421875 L 1779.53125 1157.578125 C 1780.859375 1183.4375 1788.867188 1208.59375 1812.578125 1232.070313 C 1834.921875 1211.015625 1851.523438 1186.289063 1845.039063 1146.796875 L 1870.507813 1152.5 L 1863.359375 1133.554688 L 1910.46875 1136.5625 L 1894.53125 1092.734375 L 1937.460938 1091.523438 L 1893.046875 1036.875 Z M 1712.890625 1042.890625 " transform="matrix(0.1,0,0,-0.1,0,273)"/>
<path style="fill-rule:evenodd;fill:rgb(100%,100%,100%);fill-opacity:1;stroke-width:22.696;stroke-linecap:butt;stroke-linejoin:miter;stroke:rgb(0%,0.784302%,0%);stroke-opacity:1;stroke-miterlimit:4;" d="M 1684.609375 968.007813 C 1675.859375 990.820313 1664.101563 1029.726563 1687.03125 1046.523438 C 1702.578125 1057.929688 1719.140625 1058.4375 1735.976563 1056.445313 C 1734.765625 1105.625 1782.460938 1134.84375 1826.992188 1111.40625 C 1844.960938 1101.953125 1858.164063 1084.375 1862.96875 1054.960938 C 1930.039063 1062.1875 1931.09375 1016.835938 1913.710938 970.15625 Z M 1684.609375 968.007813 " transform="matrix(0.1,0,0,-0.1,0,273)"/>
<path style="fill-rule:evenodd;fill:rgb(100%,100%,100%);fill-opacity:1;stroke-width:22.696;stroke-linecap:butt;stroke-linejoin:miter;stroke:rgb(0%,0.784302%,0%);stroke-opacity:1;stroke-miterlimit:4;" d="M 1680.703125 977.382813 C 1721.484375 867.109375 1868.789063 892.578125 1913.710938 970.15625 L 1874.0625 977.382813 L 1873.476563 998.984375 L 1843.007813 988.828125 C 1838.046875 988.515625 1837.148438 991.289063 1838.125 995.351563 L 1839.84375 1015.195313 L 1823.398438 1004.726563 C 1810.9375 996.835938 1803.789063 983.320313 1795.9375 1001.171875 L 1781.601563 1024.804688 C 1772.65625 1013.203125 1761.210938 985.859375 1750.664063 999.414063 L 1723.359375 1022.421875 L 1722.148438 981.5625 Z M 1680.703125 977.382813 " transform="matrix(0.1,0,0,-0.1,0,273)"/>
<path style="fill-rule:evenodd;fill:rgb(100%,100%,100%);fill-opacity:1;stroke-width:22.678;stroke-linecap:butt;stroke-linejoin:miter;stroke:rgb(0%,0.784302%,0%);stroke-opacity:1;stroke-miterlimit:4;" d="M 1078.828125 1410.234375 L 1205.664063 1243.828125 L 1407.890625 1178.164063 L 1284.0625 1009.648438 L 1282.1875 802.65625 L 1078.828125 864.882813 L 875.429688 802.65625 L 873.59375 1009.648438 L 749.765625 1178.164063 L 952.03125 1243.828125 Z M 1078.828125 1410.234375 " transform="matrix(0.1,0,0,-0.1,0,273)"/>
<path style="fill:none;stroke-width:25.614;stroke-linecap:butt;stroke-linejoin:miter;stroke:rgb(0%,0.784302%,0%);stroke-opacity:1;stroke-miterlimit:4;" d="M 1078.828125 1343.554688 L 1080.039063 1088.125 L 1312.773438 1165.898438 L 1080.703125 1085.78125 L 1223.398438 878.398438 L 1078.828125 1084.335938 L 934.257813 878.398438 L 1076.914063 1085.78125 L 844.882813 1165.898438 L 1077.65625 1088.125 Z M 1078.828125 1343.554688 " transform="matrix(0.1,0,0,-0.1,0,273)"/>
<path style="fill-rule:evenodd;fill:rgb(89.0625%,0%,8.616638%);fill-opacity:1;stroke-width:11.348;stroke-linecap:butt;stroke-linejoin:miter;stroke:rgb(0%,0.784302%,0%);stroke-opacity:1;stroke-miterlimit:4;" d="M 1078.828125 1154.765625 C 1123.945313 1154.765625 1160.507813 1118.203125 1160.507813 1073.085938 C 1160.507813 1027.96875 1123.945313 991.40625 1078.828125 991.40625 C 1033.710938 991.40625 997.148438 1027.96875 997.148438 1073.085938 C 997.148438 1118.203125 1033.710938 1154.765625 1078.828125 1154.765625 Z M 1078.828125 1154.765625 " transform="matrix(0.1,0,0,-0.1,0,273)"/>
<path style="fill-rule:evenodd;fill:rgb(100%,100%,100%);fill-opacity:1;stroke-width:5;stroke-linecap:butt;stroke-linejoin:miter;stroke:rgb(0%,0.784302%,0%);stroke-opacity:1;stroke-miterlimit:4;" d="M 681.875 1757.34375 L 556.953125 1700.273438 L 517.929688 1519.53125 L 508.359375 1476.875 L 633.828125 1477.5 L 626.640625 1656.40625 L 655.429688 1512.265625 L 787.539063 1471.445313 L 952.148438 1526.679688 L 959.296875 1656.40625 L 953.359375 1472.617188 L 1068.59375 1499.0625 L 1036.171875 1698.4375 L 892.070313 1759.6875 L 790.585938 1744.101563 Z M 681.875 1757.34375 " transform="matrix(0.1,0,0,-0.1,0,273)"/>
<path style="fill-rule:evenodd;fill:rgb(100%,100%,100%);fill-opacity:1;stroke-width:5;stroke-linecap:butt;stroke-linejoin:miter;stroke:rgb(0%,0.784302%,0%);stroke-opacity:1;stroke-miterlimit:4;" d="M 743.125 1749.882813 L 792.34375 1705.039063 L 841.328125 1751.875 C 841.328125 1751.875 756.132813 1748.320313 743.125 1749.882813 Z M 743.125 1749.882813 " transform="matrix(0.1,0,0,-0.1,0,273)"/>
<path style="fill-rule:evenodd;fill:rgb(100%,100%,100%);fill-opacity:1;stroke-width:5;stroke-linecap:butt;stroke-linejoin:miter;stroke:rgb(0%,0.784302%,0%);stroke-opacity:1;stroke-miterlimit:4;" d="M 956.015625 1596.835938 L 840.703125 1598.75 L 838.632813 1509.53125 L 856.953125 1494.726563 L 952.226563 1529.140625 Z M 956.015625 1596.835938 " transform="matrix(0.1,0,0,-0.1,0,273)"/>
<path style="fill-rule:evenodd;fill:rgb(89.0625%,0%,8.616638%);fill-opacity:1;stroke-width:9.078;stroke-linecap:butt;stroke-linejoin:miter;stroke:rgb(0%,0.784302%,0%);stroke-opacity:1;stroke-miterlimit:4;" d="M 780.898438 1715.46875 L 757.421875 1480.742188 L 790.390625 1472.382813 L 830.234375 1489.726563 L 809.84375 1717.03125 L 792.34375 1705.039063 Z M 780.898438 1715.46875 " transform="matrix(0.1,0,0,-0.1,0,273)"/>
<path style="fill-rule:evenodd;fill:rgb(100%,100%,100%);fill-opacity:1;stroke-width:5;stroke-linecap:butt;stroke-linejoin:miter;stroke:rgb(0%,0.784302%,0%);stroke-opacity:1;stroke-miterlimit:4;" d="M 874.375 1792.1875 L 821.5625 1721.914063 L 907.304688 1699.804688 C 902.851563 1731.523438 891.71875 1765.15625 874.375 1792.1875 Z M 874.375 1792.1875 " transform="matrix(0.1,0,0,-0.1,0,273)"/>
<path style="fill-rule:evenodd;fill:rgb(100%,100%,100%);fill-opacity:1;stroke-width:5;stroke-linecap:butt;stroke-linejoin:miter;stroke:rgb(0%,0.784302%,0%);stroke-opacity:1;stroke-miterlimit:4;" d="M 711.289063 1792.1875 L 764.140625 1721.914063 L 678.398438 1699.804688 C 682.851563 1731.523438 693.945313 1765.15625 711.289063 1792.1875 Z M 711.289063 1792.1875 " transform="matrix(0.1,0,0,-0.1,0,273)"/>
<path style=" stroke:none;fill-rule:evenodd;fill:rgb(0%,0.784302%,0%);fill-opacity:1;" d="M 119.65625 92.234375 C 123.363281 95.382813 124.253906 97.289063 129.066406 97.90625 C 134.886719 98.648438 140.722656 98.691406 146.589844 97.898438 L 152.164063 92.761719 C 153.3125 91.707031 153.894531 91.40625 154.003906 89.691406 C 154.128906 87.761719 153.09375 85.878906 152.34375 84.0625 L 148.339844 74.378906 L 135.878906 67.023438 L 122.734375 77.730469 C 121.714844 80.707031 117.398438 89.941406 119.65625 92.234375 Z M 119.65625 92.234375 "/>
<path style="fill-rule:evenodd;fill:rgb(100%,100%,100%);fill-opacity:1;stroke-width:4.539;stroke-linecap:butt;stroke-linejoin:miter;stroke:rgb(0%,0.784302%,0%);stroke-opacity:1;stroke-miterlimit:4;" d="M 732.617188 1979.023438 C 724.453125 1948.203125 711.796875 1920.9375 692.226563 1898.828125 C 686.054688 1825 747.460938 1752.1875 798.789063 1753.203125 C 832.148438 1753.867188 867.617188 1793.476563 886.914063 1871.25 C 889.648438 1893.710938 894.570313 1916.71875 887.890625 1937.8125 C 833.398438 1938.984375 783.554688 1954.648438 732.617188 1979.023438 Z M 732.617188 1979.023438 " transform="matrix(0.1,0,0,-0.1,0,273)"/>
<path style="fill-rule:evenodd;fill:rgb(100%,100%,100%);fill-opacity:1;stroke-width:4.516;stroke-linecap:butt;stroke-linejoin:miter;stroke:rgb(0%,0.784302%,0%);stroke-opacity:1;stroke-miterlimit:4;" d="M 903.789063 1861.992188 C 912.539063 1866.09375 914.21875 1880 908.398438 1895.976563 C 905.039063 1895.46875 901.09375 1890.703125 896.445313 1880.195313 C 897.03125 1871.484375 894.648438 1857.734375 903.789063 1861.992188 Z M 903.789063 1861.992188 " transform="matrix(0.1,0,0,-0.1,0,273)"/>
<path style="fill-rule:evenodd;fill:rgb(100%,100%,100%);fill-opacity:1;stroke-width:4.516;stroke-linecap:butt;stroke-linejoin:miter;stroke:rgb(0%,0.784302%,0%);stroke-opacity:1;stroke-miterlimit:4;" d="M 676.875 1861.992188 C 668.085938 1866.09375 666.40625 1880 672.226563 1895.976563 C 675.625 1895.46875 679.570313 1890.703125 684.179688 1880.195313 C 683.632813 1871.484375 685.976563 1857.734375 676.875 1861.992188 Z M 676.875 1861.992188 " transform="matrix(0.1,0,0,-0.1,0,273)"/>
<path style="fill-rule:evenodd;fill:rgb(0%,0.784302%,0%);fill-opacity:1;stroke-width:3.459;stroke-linecap:butt;stroke-linejoin:miter;stroke:rgb(0%,0.784302%,0%);stroke-opacity:1;stroke-miterlimit:4;" d="M 667.65625 1985.351563 C 674.648438 2004.101563 687.890625 2018.125 709.257813 2030.742188 C 745.703125 2056.484375 787.617188 2061.914063 828.671875 2051.054688 C 851.5625 2045 863.90625 2034.609375 878.710938 2021.210938 C 889.765625 2011.25 896.289063 2003.515625 902.539063 1994.53125 C 931.445313 1953.242188 909.0625 1907.148438 894.921875 1865.3125 L 880.703125 1833.007813 L 874.921875 1826.523438 L 889.804688 1893.4375 L 887.890625 1937.8125 C 833.789063 1935.078125 782.734375 1953.710938 732.617188 1979.023438 C 722.578125 1942.304688 708.4375 1917.539063 692.226563 1898.828125 L 692.421875 1875.703125 L 685.976563 1880.15625 L 672.226563 1895.976563 L 669.101563 1889.648438 C 666.367188 1918.125 657.8125 1958.867188 667.65625 1985.351563 Z M 667.65625 1985.351563 " transform="matrix(0.1,0,0,-0.1,0,273)"/>
<path style=" stroke:none;fill-rule:evenodd;fill:rgb(0%,0.784302%,0%);fill-opacity:1;" d="M 84.214844 81.828125 C 82.78125 82.070313 81.933594 82.328125 81.265625 83.246094 C 80.546875 84.238281 81.496094 84.476563 82.238281 84.605469 C 83.273438 84.78125 84.332031 84.628906 85.386719 84.449219 C 85.742188 84.386719 86.097656 84.316406 86.457031 84.238281 C 86.089844 83.792969 84.992188 83.882813 84.132813 83.785156 C 83.945313 83.765625 83.003906 83.617188 82.941406 83.554688 C 82.804688 83.433594 82.726563 83.289063 82.722656 83.136719 C 82.714844 82.683594 83.316406 82.449219 84.046875 82.183594 C 85.183594 81.765625 85.613281 81.59375 84.214844 81.828125 Z M 84.214844 81.828125 "/>
<path style=" stroke:none;fill-rule:evenodd;fill:rgb(0%,0.784302%,0%);fill-opacity:1;" d="M 73.816406 81.828125 C 75.253906 82.070313 76.101563 82.328125 76.765625 83.246094 C 77.484375 84.238281 76.539063 84.476563 75.792969 84.605469 C 74.757813 84.78125 73.710938 84.628906 72.644531 84.449219 C 72.289063 84.386719 71.933594 84.316406 71.582031 84.238281 C 71.945313 83.792969 73.039063 83.882813 73.898438 83.785156 C 74.089844 83.765625 75.027344 83.617188 75.089844 83.554688 C 75.226563 83.433594 75.304688 83.289063 75.308594 83.136719 C 75.316406 82.683594 74.714844 82.449219 73.988281 82.183594 C 72.847656 81.765625 72.421875 81.59375 73.816406 81.828125 Z M 73.816406 81.828125 "/>
<path style=" stroke:none;fill-rule:evenodd;fill:rgb(0%,0.784302%,0%);fill-opacity:1;" d="M 80.421875 85.414063 L 80.859375 88.320313 C 81.160156 89.390625 80.835938 89.941406 80.097656 90.148438 L 79.109375 89.984375 C 78.808594 89.695313 78.953125 89.328125 79.347656 89.308594 C 80.558594 89.25 80.042969 86.570313 80.023438 85.554688 C 80.085938 85.265625 80.289063 85.191406 80.421875 85.414063 Z M 80.421875 85.414063 "/>
<path style=" stroke:none;fill-rule:evenodd;fill:rgb(0%,0.784302%,0%);fill-opacity:1;" d="M 76.816406 91.398438 L 82.128906 91.398438 C 82.355469 91.398438 82.546875 91.589844 82.546875 91.820313 L 82.546875 91.824219 C 82.546875 92.058594 82.355469 92.246094 82.128906 92.246094 L 76.816406 92.246094 C 76.589844 92.246094 76.394531 92.058594 76.394531 91.824219 L 76.394531 91.820313 C 76.394531 91.589844 76.589844 91.398438 76.816406 91.398438 Z M 76.816406 91.398438 "/>
<path style="fill-rule:evenodd;fill:rgb(0%,0.784302%,0%);fill-opacity:1;stroke-width:3.208;stroke-linecap:butt;stroke-linejoin:miter;stroke:rgb(0%,0.784302%,0%);stroke-opacity:1;stroke-miterlimit:4;" d="M 797.226563 1797.617188 C 795.195313 1794.648438 792.539063 1791.992188 789.648438 1789.921875 C 785.351563 1786.914063 787.03125 1789.023438 788.164063 1792.851563 L 789.140625 1796.054688 C 790.625 1799.414063 793.359375 1799.179688 796.445313 1799.882813 C 799.6875 1800.625 799.335938 1800.585938 797.226563 1797.617188 Z M 797.226563 1797.617188 " transform="matrix(0.1,0,0,-0.1,0,273)"/>
<path style="fill-rule:evenodd;fill:rgb(100%,100%,100%);fill-opacity:1;stroke-width:9.078;stroke-linecap:butt;stroke-linejoin:miter;stroke:rgb(0%,0.784302%,0%);stroke-opacity:1;stroke-miterlimit:4;" d="M 1219.765625 1512.265625 L 1356.71875 1468.945313 L 1355.546875 1270.507813 L 1231.09375 1304.960938 C 1207.265625 1370.507813 1193.90625 1439.921875 1199.960938 1517.890625 Z M 1219.765625 1512.265625 " transform="matrix(0.1,0,0,-0.1,0,273)"/>
<path style="fill-rule:evenodd;fill:rgb(100%,100%,100%);fill-opacity:1;stroke-width:9.078;stroke-linecap:butt;stroke-linejoin:miter;stroke:rgb(0%,0.784302%,0%);stroke-opacity:1;stroke-miterlimit:4;" d="M 1094.609375 1486.445313 C 1094.960938 1434.921875 1153.59375 1271.953125 1213.515625 1272.8125 L 1219.804688 1272.890625 L 1279.257813 1273.632813 C 1292.148438 1277.578125 1288.007813 1293.554688 1275.039063 1294.0625 L 1228.671875 1295.78125 C 1215.703125 1294.453125 1208.046875 1308.203125 1224.21875 1311.40625 L 1288.242188 1310.859375 C 1300.273438 1313.085938 1300.898438 1330.742188 1290.078125 1333.671875 L 1228.242188 1333.671875 C 1219.414063 1336.601563 1221.40625 1345.78125 1228.828125 1345.078125 L 1290.664063 1345.078125 C 1301.875 1347.890625 1297.773438 1364.492188 1290.078125 1366.09375 L 1227.304688 1366.640625 C 1222.96875 1369.648438 1220.898438 1374.179688 1225.859375 1377.539063 L 1282.578125 1377.539063 C 1291.835938 1377.539063 1292.304688 1375.234375 1294.023438 1383.984375 C 1295.507813 1391.71875 1295.585938 1400.429688 1287.65625 1402.148438 L 1217.148438 1401.835938 C 1192.65625 1411.953125 1179.84375 1429.023438 1166.640625 1453.515625 L 1186.601563 1447.773438 C 1191.640625 1448.007813 1192.460938 1450.742188 1190.703125 1455 L 1175.15625 1486.796875 Z M 1094.609375 1486.445313 " transform="matrix(0.1,0,0,-0.1,0,273)"/>
<path style="fill-rule:evenodd;fill:rgb(100%,100%,100%);fill-opacity:1;stroke-width:9.078;stroke-linecap:butt;stroke-linejoin:miter;stroke:rgb(0%,0.784302%,0%);stroke-opacity:1;stroke-miterlimit:4;" d="M 1496.953125 1512.265625 L 1360.039063 1468.945313 L 1361.171875 1270.507813 L 1485.585938 1304.960938 C 1509.453125 1370.507813 1522.8125 1439.921875 1516.71875 1517.890625 Z M 1496.953125 1512.265625 " transform="matrix(0.1,0,0,-0.1,0,273)"/>
<path style="fill-rule:evenodd;fill:rgb(100%,100%,100%);fill-opacity:1;stroke-width:9.078;stroke-linecap:butt;stroke-linejoin:miter;stroke:rgb(0%,0.784302%,0%);stroke-opacity:1;stroke-miterlimit:4;" d="M 1619.101563 1502.03125 C 1618.789063 1450.507813 1563.085938 1271.953125 1503.164063 1272.8125 L 1496.914063 1272.890625 L 1437.421875 1273.632813 C 1424.609375 1277.578125 1428.671875 1293.554688 1441.640625 1294.0625 L 1488.007813 1295.78125 C 1500.976563 1294.453125 1508.671875 1308.203125 1492.539063 1311.40625 L 1428.4375 1310.859375 C 1416.40625 1313.085938 1415.859375 1330.742188 1426.640625 1333.671875 L 1488.476563 1333.671875 C 1497.265625 1336.601563 1495.273438 1345.78125 1487.851563 1345.078125 L 1426.015625 1345.078125 C 1414.804688 1347.890625 1418.90625 1364.492188 1426.640625 1366.09375 L 1489.375 1366.640625 C 1493.789063 1369.648438 1495.78125 1374.179688 1490.898438 1377.539063 L 1434.101563 1377.539063 C 1424.84375 1377.539063 1424.375 1375.234375 1422.65625 1383.984375 C 1421.171875 1391.71875 1421.09375 1400.429688 1429.023438 1402.148438 L 1499.648438 1401.835938 C 1524.023438 1411.953125 1536.835938 1429.023438 1550.039063 1453.515625 L 1530.117188 1447.773438 C 1525.039063 1448.007813 1524.21875 1450.742188 1525.976563 1455 L 1541.523438 1486.796875 Z M 1619.101563 1502.03125 " transform="matrix(0.1,0,0,-0.1,0,273)"/>
<path style="fill-rule:evenodd;fill:rgb(100%,100%,100%);fill-opacity:1;stroke-width:5;stroke-linecap:butt;stroke-linejoin:miter;stroke:rgb(0%,0.784302%,0%);stroke-opacity:1;stroke-miterlimit:4;" d="M 1246.171875 1757.34375 L 1121.289063 1700.273438 L 1082.226563 1519.53125 L 1072.617188 1476.875 L 1198.125 1477.5 L 1190.9375 1656.40625 L 1219.765625 1512.265625 L 1351.875 1471.445313 L 1516.40625 1526.679688 L 1523.59375 1656.40625 L 1517.617188 1472.617188 L 1632.890625 1499.0625 L 1600.46875 1698.4375 L 1456.367188 1759.6875 L 1354.882813 1744.101563 Z M 1246.171875 1757.34375 " transform="matrix(0.1,0,0,-0.1,0,273)"/>
<path style="fill-rule:evenodd;fill:rgb(100%,100%,100%);fill-opacity:1;stroke-width:5;stroke-linecap:butt;stroke-linejoin:miter;stroke:rgb(0%,0.784302%,0%);stroke-opacity:1;stroke-miterlimit:4;" d="M 1307.421875 1749.882813 L 1356.71875 1705.039063 L 1405.625 1751.875 C 1405.625 1751.875 1320.46875 1748.320313 1307.421875 1749.882813 Z M 1307.421875 1749.882813 " transform="matrix(0.1,0,0,-0.1,0,273)"/>
<path style="fill-rule:evenodd;fill:rgb(89.0625%,0%,8.616638%);fill-opacity:1;stroke-width:34.044;stroke-linecap:butt;stroke-linejoin:miter;stroke:rgb(0%,0.784302%,0%);stroke-opacity:1;stroke-miterlimit:4;" d="M 1044.023438 1881.132813 L 1334.53125 1881.132813 C 1364.21875 1947.773438 1410.742188 2035.9375 1431.640625 2103.164063 C 1471.5625 2231.679688 1441.914063 2435.664063 1267.65625 2435.820313 L 1040.039063 2436.015625 Z M 1168.203125 2313.164063 L 1167.226563 2020.15625 C 1168.007813 2004.101563 1177.421875 1997.96875 1190.234375 2003.164063 C 1252.34375 2025.78125 1303.867188 2087.148438 1308.828125 2153.515625 C 1311.835938 2194.023438 1316.40625 2245.703125 1297.539063 2274.257813 C 1276.484375 2306.171875 1235.195313 2320.742188 1168.203125 2313.164063 Z M 1168.203125 2313.164063 " transform="matrix(0.1,0,0,-0.1,0,273)"/>
<path style="fill-rule:evenodd;fill:rgb(100%,100%,100%);fill-opacity:1;stroke-width:5;stroke-linecap:butt;stroke-linejoin:miter;stroke:rgb(0%,0.784302%,0%);stroke-opacity:1;stroke-miterlimit:4;" d="M 1520.3125 1596.835938 L 1405.039063 1598.75 L 1402.96875 1509.53125 L 1421.289063 1494.726563 L 1516.5625 1529.140625 Z M 1520.3125 1596.835938 " transform="matrix(0.1,0,0,-0.1,0,273)"/>
<path style="fill-rule:evenodd;fill:rgb(89.0625%,0%,8.616638%);fill-opacity:1;stroke-width:9.078;stroke-linecap:butt;stroke-linejoin:miter;stroke:rgb(0%,0.784302%,0%);stroke-opacity:1;stroke-miterlimit:4;" d="M 1345.195313 1715.46875 L 1321.71875 1480.742188 L 1354.6875 1472.382813 L 1394.53125 1489.726563 L 1374.140625 1717.03125 L 1356.71875 1705.039063 Z M 1345.195313 1715.46875 " transform="matrix(0.1,0,0,-0.1,0,273)"/>
<path style="fill-rule:evenodd;fill:rgb(100%,100%,100%);fill-opacity:1;stroke-width:5;stroke-linecap:butt;stroke-linejoin:miter;stroke:rgb(0%,0.784302%,0%);stroke-opacity:1;stroke-miterlimit:4;" d="M 1438.710938 1792.1875 L 1385.898438 1721.914063 L 1471.601563 1699.804688 C 1467.148438 1731.523438 1456.054688 1765.15625 1438.710938 1792.1875 Z M 1438.710938 1792.1875 " transform="matrix(0.1,0,0,-0.1,0,273)"/>
<path style="fill-rule:evenodd;fill:rgb(100%,100%,100%);fill-opacity:1;stroke-width:5;stroke-linecap:butt;stroke-linejoin:miter;stroke:rgb(0%,0.784302%,0%);stroke-opacity:1;stroke-miterlimit:4;" d="M 1275.625 1792.1875 L 1328.476563 1721.914063 L 1242.695313 1699.804688 C 1247.148438 1731.523438 1258.28125 1765.15625 1275.625 1792.1875 Z M 1275.625 1792.1875 " transform="matrix(0.1,0,0,-0.1,0,273)"/>
<path style="fill-rule:evenodd;fill:rgb(100%,100%,100%);fill-opacity:1;stroke-width:4.539;stroke-linecap:butt;stroke-linejoin:miter;stroke:rgb(0%,0.784302%,0%);stroke-opacity:1;stroke-miterlimit:4;" d="M 1296.953125 1979.023438 C 1288.789063 1948.203125 1276.09375 1920.9375 1256.523438 1898.828125 C 1250.351563 1825 1311.757813 1752.1875 1363.085938 1753.203125 C 1396.484375 1753.867188 1431.914063 1793.476563 1451.210938 1871.25 C 1453.90625 1893.710938 1458.828125 1916.71875 1452.1875 1937.8125 C 1397.695313 1938.984375 1347.851563 1954.648438 1296.953125 1979.023438 Z M 1296.953125 1979.023438 " transform="matrix(0.1,0,0,-0.1,0,273)"/>
<path style="fill-rule:evenodd;fill:rgb(100%,100%,100%);fill-opacity:1;stroke-width:4.516;stroke-linecap:butt;stroke-linejoin:miter;stroke:rgb(0%,0.784302%,0%);stroke-opacity:1;stroke-miterlimit:4;" d="M 1468.085938 1861.992188 C 1476.835938 1866.09375 1478.515625 1880 1472.695313 1895.976563 C 1469.296875 1895.46875 1465.390625 1890.703125 1460.78125 1880.195313 C 1461.289063 1871.484375 1458.984375 1857.734375 1468.085938 1861.992188 Z M 1468.085938 1861.992188 " transform="matrix(0.1,0,0,-0.1,0,273)"/>
<path style="fill-rule:evenodd;fill:rgb(100%,100%,100%);fill-opacity:1;stroke-width:4.516;stroke-linecap:butt;stroke-linejoin:miter;stroke:rgb(0%,0.784302%,0%);stroke-opacity:1;stroke-miterlimit:4;" d="M 1241.171875 1861.992188 C 1232.382813 1866.09375 1230.703125 1880 1236.523438 1895.976563 C 1239.921875 1895.46875 1243.867188 1890.703125 1248.476563 1880.195313 C 1247.96875 1871.484375 1250.273438 1857.734375 1241.171875 1861.992188 Z M 1241.171875 1861.992188 " transform="matrix(0.1,0,0,-0.1,0,273)"/>
<path style="fill-rule:evenodd;fill:rgb(0%,0.784302%,0%);fill-opacity:1;stroke-width:3.459;stroke-linecap:butt;stroke-linejoin:miter;stroke:rgb(0%,0.784302%,0%);stroke-opacity:1;stroke-miterlimit:4;" d="M 1231.953125 1985.351563 C 1238.90625 2004.101563 1252.1875 2018.125 1273.554688 2030.742188 C 1310.039063 2056.484375 1351.914063 2061.914063 1392.96875 2051.054688 C 1415.898438 2045 1428.203125 2034.609375 1443.046875 2021.210938 C 1454.0625 2011.25 1460.546875 2003.515625 1466.835938 1994.53125 C 1495.742188 1953.242188 1473.398438 1907.148438 1459.21875 1865.3125 L 1445.039063 1833.007813 L 1439.21875 1826.523438 L 1454.101563 1893.4375 L 1452.1875 1937.8125 C 1398.085938 1935.078125 1347.03125 1953.710938 1296.953125 1979.023438 C 1286.875 1942.304688 1272.734375 1917.539063 1256.523438 1898.828125 L 1256.71875 1875.703125 L 1250.3125 1880.15625 L 1236.5625 1895.976563 L 1233.398438 1889.648438 C 1230.664063 1918.125 1222.148438 1958.867188 1231.953125 1985.351563 Z M 1231.953125 1985.351563 " transform="matrix(0.1,0,0,-0.1,0,273)"/>
<path style=" stroke:none;fill-rule:evenodd;fill:rgb(0%,0.784302%,0%);fill-opacity:1;" d="M 140.644531 81.828125 C 139.214844 82.070313 138.363281 82.328125 137.695313 83.246094 C 136.980469 84.238281 137.925781 84.476563 138.671875 84.605469 C 139.703125 84.78125 140.757813 84.628906 141.816406 84.449219 C 142.171875 84.386719 142.527344 84.316406 142.886719 84.238281 C 142.515625 83.792969 141.425781 83.882813 140.5625 83.785156 C 140.378906 83.765625 139.4375 83.617188 139.371094 83.554688 C 139.234375 83.433594 139.15625 83.289063 139.152344 83.136719 C 139.144531 82.683594 139.746094 82.449219 140.476563 82.183594 C 141.617188 81.765625 142.046875 81.59375 140.644531 81.828125 Z M 140.644531 81.828125 "/>
<path style=" stroke:none;fill-rule:evenodd;fill:rgb(0%,0.784302%,0%);fill-opacity:1;" d="M 130.246094 81.828125 C 131.683594 82.070313 132.53125 82.328125 133.199219 83.246094 C 133.914063 84.238281 132.96875 84.476563 132.222656 84.605469 C 131.1875 84.78125 130.136719 84.628906 129.078125 84.449219 C 128.722656 84.386719 128.363281 84.316406 128.007813 84.238281 C 128.378906 83.792969 129.46875 83.882813 130.328125 83.785156 C 130.515625 83.765625 131.460938 83.617188 131.523438 83.554688 C 131.65625 83.433594 131.738281 83.289063 131.738281 83.136719 C 131.746094 82.683594 131.144531 82.449219 130.421875 82.183594 C 129.277344 81.765625 128.851563 81.59375 130.246094 81.828125 Z M 130.246094 81.828125 "/>
<path style=" stroke:none;fill-rule:evenodd;fill:rgb(0%,0.784302%,0%);fill-opacity:1;" d="M 136.855469 85.414063 L 137.289063 88.320313 C 137.589844 89.390625 137.265625 89.941406 136.527344 90.148438 L 135.539063 89.984375 C 135.238281 89.695313 135.378906 89.328125 135.777344 89.308594 C 136.992188 89.25 136.472656 86.570313 136.453125 85.554688 C 136.511719 85.265625 136.71875 85.191406 136.855469 85.414063 Z M 136.855469 85.414063 "/>
<path style=" stroke:none;fill-rule:evenodd;fill:rgb(0%,0.784302%,0%);fill-opacity:1;" d="M 133.253906 91.398438 L 138.554688 91.398438 C 138.789063 91.398438 138.980469 91.589844 138.980469 91.820313 L 138.980469 91.824219 C 138.980469 92.058594 138.789063 92.246094 138.554688 92.246094 L 133.253906 92.246094 C 133.015625 92.246094 132.824219 92.058594 132.824219 91.824219 L 132.824219 91.820313 C 132.824219 91.589844 133.015625 91.398438 133.253906 91.398438 Z M 133.253906 91.398438 "/>
<path style="fill-rule:evenodd;fill:rgb(0%,0.784302%,0%);fill-opacity:1;stroke-width:3.208;stroke-linecap:butt;stroke-linejoin:miter;stroke:rgb(0%,0.784302%,0%);stroke-opacity:1;stroke-miterlimit:4;" d="M 1361.5625 1797.617188 C 1359.492188 1794.648438 1356.835938 1791.992188 1353.90625 1789.921875 C 1349.648438 1786.914063 1351.289063 1789.023438 1352.460938 1792.851563 L 1353.4375 1796.054688 C 1354.921875 1799.414063 1357.617188 1799.179688 1360.742188 1799.882813 C 1364.023438 1800.625 1363.632813 1800.585938 1361.5625 1797.617188 Z M 1361.5625 1797.617188 " transform="matrix(0.1,0,0,-0.1,0,273)"/>
</g>
</svg>
